<mxfile host="app.diagrams.net" modified="2023-09-20T02:33:41.546Z" agent="Mozilla/5.0 (Macintosh; Intel Mac OS X 10_15_7) AppleWebKit/537.36 (KHTML, like Gecko) Chrome/116.0.0.0 Safari/537.36" etag="1QlIaA__Zlxu5DwUEUqR" version="21.7.2" type="github">
  <diagram name="第 1 页" id="xQtrfD_Nb6HlviRhQj4i">
    <mxGraphModel dx="2177" dy="1288" grid="1" gridSize="10" guides="1" tooltips="1" connect="1" arrows="1" fold="1" page="1" pageScale="1" pageWidth="827" pageHeight="1169" math="0" shadow="0">
      <root>
        <mxCell id="0" />
        <mxCell id="1" parent="0" />
        <mxCell id="5VQ-BHDmZFzjsblghesp-15" value="&lt;div style=&quot;font-family: &amp;quot;Fira Code&amp;quot;, Menlo, Monaco, &amp;quot;Courier New&amp;quot;, monospace, Menlo, Monaco, &amp;quot;Courier New&amp;quot;, monospace; font-size: 15px; line-height: 27px;&quot;&gt;&lt;div style=&quot;line-height: 27px;&quot;&gt;&lt;div style=&quot;&quot;&gt;&lt;font color=&quot;#4f6875&quot;&gt;/** 约定的常规接口返回数据结构体 */&lt;/font&gt;&lt;/div&gt;&lt;div style=&quot;color: rgb(212, 212, 212);&quot;&gt;&lt;span style=&quot;color: #c792ea;&quot;&gt;export&lt;/span&gt;&lt;span style=&quot;color: #eeffff;&quot;&gt; &lt;/span&gt;&lt;span style=&quot;color: #c792ea;&quot;&gt;interface&lt;/span&gt;&lt;span style=&quot;color: #eeffff;&quot;&gt; &lt;/span&gt;&lt;span style=&quot;color: #ffcb6b;&quot;&gt;QstResult&lt;/span&gt;&lt;span style=&quot;color: #89ddf3;&quot;&gt;&amp;lt;&lt;/span&gt;&lt;span style=&quot;color: #82aaff;&quot;&gt;T&lt;/span&gt;&lt;span style=&quot;color: #89ddf3;&quot;&gt;&amp;gt;&lt;/span&gt;&lt;span style=&quot;color: #eeffff;&quot;&gt; &lt;/span&gt;&lt;span style=&quot;color: #89ddf3;&quot;&gt;{&lt;/span&gt;&lt;/div&gt;&lt;div style=&quot;color: rgb(212, 212, 212);&quot;&gt;&lt;span style=&quot;color: #eeffff;&quot;&gt;&lt;/span&gt;&lt;span style=&quot;color: #4f6875;font-style: italic;&quot;&gt;&amp;nbsp; /** http状态码 3位数 比如200、401、500等 */&lt;/span&gt;&lt;/div&gt;&lt;div style=&quot;color: rgb(212, 212, 212);&quot;&gt;&lt;span style=&quot;color: #eeffff;&quot;&gt;&amp;nbsp; status&lt;/span&gt;&lt;span style=&quot;color: #89ddf3;&quot;&gt;:&lt;/span&gt;&lt;span style=&quot;color: #eeffff;&quot;&gt; &lt;/span&gt;&lt;span style=&quot;color: #ffcb6b;&quot;&gt;number&lt;/span&gt;&lt;span style=&quot;color: #89ddf3;&quot;&gt;;&lt;/span&gt;&lt;/div&gt;&lt;div style=&quot;color: rgb(212, 212, 212);&quot;&gt;&lt;span style=&quot;color: #eeffff;&quot;&gt;&lt;/span&gt;&lt;span style=&quot;color: #4f6875;font-style: italic;&quot;&gt;&amp;nbsp; /** 扩展状态码 7位数 比如2000000 4010000 4000297 5000000等 */&lt;/span&gt;&lt;/div&gt;&lt;div style=&quot;color: rgb(212, 212, 212);&quot;&gt;&lt;span style=&quot;color: #eeffff;&quot;&gt;&amp;nbsp; code&lt;/span&gt;&lt;span style=&quot;color: #89ddf3;&quot;&gt;:&lt;/span&gt;&lt;span style=&quot;color: #eeffff;&quot;&gt; &lt;/span&gt;&lt;span style=&quot;color: #ffcb6b;&quot;&gt;number&lt;/span&gt;&lt;span style=&quot;color: #89ddf3;&quot;&gt;;&lt;/span&gt;&lt;/div&gt;&lt;div style=&quot;color: rgb(212, 212, 212);&quot;&gt;&lt;span style=&quot;color: #eeffff;&quot;&gt;&lt;/span&gt;&lt;span style=&quot;color: #4f6875;font-style: italic;&quot;&gt;&amp;nbsp; /** 成功标识 */&lt;/span&gt;&lt;/div&gt;&lt;div style=&quot;color: rgb(212, 212, 212);&quot;&gt;&lt;span style=&quot;color: #eeffff;&quot;&gt;&amp;nbsp; success&lt;/span&gt;&lt;span style=&quot;color: #89ddf3;&quot;&gt;?:&lt;/span&gt;&lt;span style=&quot;color: #eeffff;&quot;&gt; &lt;/span&gt;&lt;span style=&quot;color: #ffcb6b;&quot;&gt;boolean&lt;/span&gt;&lt;span style=&quot;color: #89ddf3;&quot;&gt;;&lt;/span&gt;&lt;/div&gt;&lt;div style=&quot;color: rgb(212, 212, 212);&quot;&gt;&lt;span style=&quot;color: #eeffff;&quot;&gt;&lt;/span&gt;&lt;span style=&quot;color: #4f6875;font-style: italic;&quot;&gt;&amp;nbsp; /** 消息 */&lt;/span&gt;&lt;/div&gt;&lt;div style=&quot;color: rgb(212, 212, 212);&quot;&gt;&lt;span style=&quot;color: #eeffff;&quot;&gt;&amp;nbsp; message&lt;/span&gt;&lt;span style=&quot;color: #89ddf3;&quot;&gt;?:&lt;/span&gt;&lt;span style=&quot;color: #eeffff;&quot;&gt; &lt;/span&gt;&lt;span style=&quot;color: #ffcb6b;&quot;&gt;string&lt;/span&gt;&lt;span style=&quot;color: #89ddf3;&quot;&gt;;&lt;/span&gt;&lt;/div&gt;&lt;div style=&quot;color: rgb(212, 212, 212);&quot;&gt;&lt;span style=&quot;color: #eeffff;&quot;&gt;&lt;/span&gt;&lt;span style=&quot;color: #4f6875;font-style: italic;&quot;&gt;&amp;nbsp; /** 返回的数据 */&lt;/span&gt;&lt;/div&gt;&lt;div style=&quot;color: rgb(212, 212, 212);&quot;&gt;&lt;span style=&quot;color: #eeffff;&quot;&gt;&amp;nbsp; data&lt;/span&gt;&lt;span style=&quot;color: #89ddf3;&quot;&gt;?:&lt;/span&gt;&lt;span style=&quot;color: #eeffff;&quot;&gt; &lt;/span&gt;&lt;span style=&quot;color: #82aaff;&quot;&gt;T&lt;/span&gt;&lt;span style=&quot;color: #89ddf3;&quot;&gt;;&lt;/span&gt;&lt;/div&gt;&lt;div style=&quot;color: rgb(212, 212, 212);&quot;&gt;&lt;span style=&quot;color: #eeffff;&quot;&gt;&lt;/span&gt;&lt;span style=&quot;color: #4f6875;font-style: italic;&quot;&gt;&amp;nbsp; /** 额外的返回数据，比如用户中心的extras.failureCount，返回登录错误的次数 */&lt;/span&gt;&lt;/div&gt;&lt;div style=&quot;color: rgb(212, 212, 212);&quot;&gt;&lt;span style=&quot;color: #eeffff;&quot;&gt;&amp;nbsp; extras&lt;/span&gt;&lt;span style=&quot;color: #89ddf3;&quot;&gt;?:&lt;/span&gt;&lt;span style=&quot;color: #eeffff;&quot;&gt; &lt;/span&gt;&lt;span style=&quot;color: #82aaff;&quot;&gt;Record&lt;/span&gt;&lt;span style=&quot;color: #89ddf3;&quot;&gt;&amp;lt;&lt;/span&gt;&lt;span style=&quot;color: #ffcb6b;&quot;&gt;string&lt;/span&gt;&lt;span style=&quot;color: #89ddf3;&quot;&gt;,&lt;/span&gt;&lt;span style=&quot;color: #eeffff;&quot;&gt; &lt;/span&gt;&lt;span style=&quot;color: #ffcb6b;&quot;&gt;unknown&lt;/span&gt;&lt;span style=&quot;color: #89ddf3;&quot;&gt;&amp;gt;;&lt;/span&gt;&lt;/div&gt;&lt;div style=&quot;color: rgb(212, 212, 212);&quot;&gt;&lt;span style=&quot;color: #89ddf3;&quot;&gt;}&lt;/span&gt;&lt;/div&gt;&lt;/div&gt;&lt;/div&gt;" style="text;whiteSpace=wrap;html=1;perimeter=rectanglePerimeter;container=0;backgroundOutline=0;comic=0;labelBorderColor=none;verticalAlign=top;fontStyle=0;spacingTop=10;labelBackgroundColor=#263238;spacing=10;spacingLeft=10;spacingBottom=10;spacingRight=10;fillColor=#263238;" vertex="1" parent="1">
          <mxGeometry x="50" y="80" width="680" height="450" as="geometry" />
        </mxCell>
      </root>
    </mxGraphModel>
  </diagram>
</mxfile>
